<?xml version="1.0" encoding="utf-8"?>
<!-- Generator: Adobe Illustrator 16.0.0, SVG Export Plug-In . SVG Version: 6.00 Build 0)  -->
<!DOCTYPE svg PUBLIC "-//W3C//DTD SVG 1.1//EN" "http://www.w3.org/Graphics/SVG/1.1/DTD/svg11.dtd">
<svg version="1.1" id="Layer_1" xmlns="http://www.w3.org/2000/svg" xmlns:xlink="http://www.w3.org/1999/xlink" x="0px" y="0px"
	 width="120px" height="120px" viewBox="0 0 120 120" enable-background="new 0 0 120 120" xml:space="preserve">
<g>
	<g>
		<g>
			<path fill="#517435" d="M93.844,91.623c0,0,5.024-4.7,9.764-6.199c4.738-1.5,11.044-7.633,11.245-8.153
				c0.138-0.351-0.815,10.48-7.265,13.761C101.136,94.311,95.464,92.685,93.844,91.623z"/>
		</g>
		<g>
			<path fill="#517435" d="M91.199,92.74c-0.155,0-0.306-0.014-0.448-0.041l0.117-0.597c1.138,0.22,3.053-0.82,3.072-0.83
				l0.294,0.532C94.158,91.847,92.514,92.74,91.199,92.74z"/>
		</g>
		<g>
			<path fill="#80AF41" d="M93.494,91.062c0,0-1.751-5.797,4.352-9.491c5.177-3.137,7.253-2.491,9.646-2.536
				c1.689-0.03,6.263-0.35,7.224-1.603c0.96-1.254-3.1,5.151-11.107,7.992c-4.271,1.515-8.863,5.478-9.764,6.199
				C93.719,91.723,93.494,91.062,93.494,91.062z"/>
		</g>
	</g>
	<g>
		<g>
			<ellipse fill="#FCD434" cx="83.828" cy="72.752" rx="20.96" ry="21.728"/>
		</g>
	</g>
	<g>
		<g>
			<path fill="#FFE375" d="M82.716,50.855c-11.241,0-20.355,9.787-20.355,21.859s9.114,21.857,20.355,21.857
				s20.354-9.785,20.354-21.857S93.957,50.855,82.716,50.855z M82.716,91.464c-9.643,0-17.46-8.395-17.46-18.749
				s7.817-18.749,17.46-18.749c9.642,0,17.46,8.395,17.46,18.749S92.357,91.464,82.716,91.464z"/>
		</g>
	</g>
	<g>
		<g>
			<ellipse fill="#FFFFFF" cx="82.715" cy="72.715" rx="19.847" ry="21.312"/>
		</g>
	</g>
	<g>
		<g>
			<g>
				<polygon fill="#FFEB7B" points="82.768,72.682 82.838,72.606 82.768,72.606 				"/>
				<polygon fill="#FFFFFF" points="82.619,73.067 82.613,72.456 83.188,72.451 				"/>
			</g>
			<g>
				<polygon fill="#FFEB7B" points="82.619,73.067 82.613,72.456 83.188,72.451 				"/>
				<polygon fill="#FFFFFF" points="82.469,73.452 82.461,72.305 83.538,72.296 				"/>
			</g>
		</g>
		<g>
			<g>
				<polygon fill="#FFEB7B" points="82.457,72.608 82.656,72.802 82.768,72.682 82.768,72.606 				"/>
				<polygon fill="#FFFFFF" points="82.663,73.02 82.085,72.46 82.918,72.453 82.921,72.74 				"/>
			</g>
			<g>
				<polygon fill="#FFEB7B" points="82.663,73.02 82.085,72.46 82.918,72.453 82.921,72.74 				"/>
				<path fill="#FFFFFF" d="M82.669,73.238l-0.955-0.927l1.355-0.011l0.005,0.498L82.669,73.238z M82.457,72.608l0.199,0.193
					l0.111-0.12v-0.075L82.457,72.608z"/>
			</g>
		</g>
		<g>
			<g>
				<polygon fill="#FFEB7B" points="82.77,72.912 82.768,72.682 82.656,72.802 				"/>
				<polygon fill="#FFFFFF" points="82.925,73.274 82.443,72.809 82.917,72.295 				"/>
			</g>
			<g>
				<polygon fill="#FFEB7B" points="82.925,73.274 82.443,72.809 82.917,72.295 				"/>
				<path fill="#FFFFFF" d="M83.081,73.636l-0.85-0.821l0.836-0.905L83.081,73.636z M82.656,72.802l0.113,0.11l-0.002-0.23
					L82.656,72.802z"/>
			</g>
		</g>
		<g>
			<g>
				<path fill="#FFEB7B" d="M82.838,72.521c0,0,10.484-11.292,11.022-11.87c0.536-0.579,1.359-1.464,0.976-3.046
					c-0.478-1.969-8.295-5.662-10.703-4.798c-1.273,0.457-1.532,1.312-1.522,2.398s0.156,17.317,0.156,17.317L82.838,72.521z"/>
				<path fill="#FFFFFF" d="M82.615,72.674l-0.002-0.151c0,0-0.146-16.231-0.156-17.316c-0.01-1.016,0.182-2.025,1.624-2.543
					c0.256-0.091,0.571-0.138,0.943-0.138c3.185,0,9.515,3.206,9.961,5.044c0.402,1.66-0.485,2.614-1.013,3.185
					c-0.54,0.579-11.022,11.87-11.022,11.87l-0.046,0.047L82.615,72.674z M85.024,52.829c-0.335,0-0.619,0.041-0.84,0.121
					c-1.193,0.428-1.433,1.21-1.423,2.253c0.009,0.999,0.134,14.77,0.154,17.011c1.421-1.529,10.336-11.134,10.832-11.665
					c0.52-0.559,1.304-1.405,0.94-2.907C94.285,55.977,87.963,52.829,85.024,52.829z"/>
			</g>
			<g>
				<path fill="#FFEB7B" d="M82.615,72.674l-0.002-0.151c0,0-0.146-16.231-0.156-17.316c-0.01-1.016,0.182-2.026,1.624-2.543
					c0.256-0.091,0.571-0.138,0.943-0.138c3.186,0,9.515,3.206,9.961,5.044c0.402,1.66-0.485,2.614-1.013,3.185
					c-0.54,0.579-11.022,11.87-11.022,11.87l-0.046,0.047L82.615,72.674z M85.024,52.829c-0.335,0-0.619,0.041-0.84,0.121
					c-1.193,0.428-1.433,1.21-1.423,2.253c0.009,0.998,0.134,14.77,0.154,17.011c1.421-1.529,10.336-11.134,10.832-11.665
					c0.52-0.559,1.304-1.405,0.94-2.907C94.285,55.977,87.963,52.829,85.024,52.829z"/>
				<path fill="#FFFFFF" d="M82.464,72.827l-0.003-0.303c0,0-0.146-16.232-0.156-17.318c-0.008-1.019,0.188-2.136,1.727-2.687
					c0.271-0.097,0.605-0.146,0.993-0.146c3.312,0,9.64,3.231,10.107,5.161c0.422,1.739-0.497,2.729-1.048,3.322
					c-0.54,0.579-11.022,11.871-11.022,11.871l-0.09,0.096L82.464,72.827z M82.609,55.147c0,0.02,0,0.037,0.001,0.057
					c0.01,1.084,0.155,17.256,0.156,17.317l-0.017-1.759c-0.038-4.231-0.131-14.695-0.14-15.559
					C82.609,55.185,82.609,55.167,82.609,55.147z M93.899,60.608c-0.014,0.014-0.026,0.028-0.039,0.042
					c-0.491,0.527-9.198,9.906-10.778,11.606c1.578-1.699,10.288-11.08,10.779-11.607C93.874,60.637,93.886,60.622,93.899,60.608z
					 M85.024,52.981c-0.318,0-0.584,0.038-0.788,0.111c-1.113,0.399-1.331,1.103-1.322,2.109c0.009,0.865,0.104,11.328,0.141,15.559
					l0.01,1.068c2.011-2.168,10.101-10.878,10.572-11.385c0.526-0.566,1.247-1.344,0.903-2.767
					C94.157,56.096,87.844,52.981,85.024,52.981z M94.398,56.869c0.23,0.261,0.383,0.51,0.438,0.735
					c0.014,0.061,0.027,0.12,0.038,0.179c-0.011-0.059-0.024-0.118-0.038-0.178C94.781,57.379,94.629,57.132,94.398,56.869z
					 M84.21,52.78c-0.025,0.007-0.053,0.016-0.077,0.025c-1.11,0.398-1.449,1.08-1.512,1.98c0.057-0.81,0.357-1.565,1.512-1.98
					C84.157,52.796,84.184,52.788,84.21,52.78z"/>
			</g>
		</g>
		<g>
			<g>
				<path fill="#FFEB7B" d="M82.903,72.575c0,0,14.85,0.168,15.61,0.177c0.762,0.009,1.925,0.021,2.712-1.378
					c0.979-1.742-2.021-10.33-4.278-11.577c-1.194-0.659-1.945-0.261-2.663,0.503c-0.716,0.768-11.429,12.22-11.429,12.22
					L82.903,72.575z"/>
				<path fill="#FFFFFF" d="M98.708,72.905L98.708,72.905l-0.197-0.002c-0.761-0.008-15.608-0.177-15.608-0.177l-0.066-0.001
					l-0.189-0.206l0.096-0.104c0,0,10.715-11.451,11.432-12.218c0.386-0.413,0.923-0.886,1.658-0.886
					c0.37,0,0.759,0.115,1.188,0.353c1.439,0.794,3.117,4.381,3.964,7.354c0.289,1.016,0.907,3.481,0.374,4.429
					C100.637,72.732,99.612,72.905,98.708,72.905z M83.151,72.425c1.936,0.022,14.66,0.168,15.364,0.174l0.192,0.003
					c0.857,0,1.74-0.158,2.386-1.302c0.33-0.588,0.179-2.157-0.402-4.197c-0.844-2.955-2.502-6.445-3.818-7.172
					c-0.384-0.212-0.725-0.313-1.041-0.313c-0.49,0-0.919,0.236-1.437,0.789C93.736,61.112,84.577,70.901,83.151,72.425z"/>
			</g>
			<g>
				<path fill="#FFEB7B" d="M98.708,72.905L98.708,72.905l-0.197-0.002c-0.761-0.008-15.608-0.177-15.608-0.177l-0.066-0.001
					l-0.189-0.206l0.096-0.104c0,0,10.715-11.451,11.432-12.218c0.386-0.413,0.923-0.886,1.658-0.886
					c0.37,0,0.759,0.115,1.188,0.353c1.439,0.794,3.117,4.381,3.964,7.354c0.289,1.016,0.907,3.481,0.374,4.429
					C100.637,72.732,99.612,72.905,98.708,72.905z M83.151,72.425c1.936,0.022,14.66,0.168,15.364,0.174l0.192,0.003
					c0.857,0,1.74-0.158,2.386-1.302c0.33-0.588,0.179-2.157-0.402-4.197c-0.844-2.955-2.502-6.445-3.818-7.172
					c-0.384-0.212-0.725-0.315-1.041-0.315c-0.49,0-0.919,0.237-1.437,0.791C93.736,61.112,84.577,70.901,83.151,72.425z"/>
				<path fill="#FFFFFF" d="M98.708,73.057l-0.197-0.001c-0.762-0.009-15.611-0.177-15.611-0.177l-0.131-0.002l-0.33-0.357
					l0.193-0.207c0,0.001,10.713-11.452,11.429-12.217c0.408-0.436,0.979-0.936,1.771-0.936c0.395,0,0.81,0.123,1.264,0.372
					c1.474,0.814,3.178,4.444,4.035,7.446c0.366,1.285,0.901,3.583,0.361,4.545C100.731,72.874,99.658,73.057,98.708,73.057z
					 M101.363,70.973c-0.032,0.161-0.078,0.294-0.138,0.401c-0.683,1.215-1.655,1.379-2.517,1.379c0.861,0,1.834-0.164,2.517-1.379
					C101.288,71.263,101.333,71.128,101.363,70.973z M82.904,72.575L82.904,72.575c-0.001,0,14.849,0.168,15.609,0.177l0.147,0.001
					l-0.146-0.001c-0.559-0.007-8.708-0.1-13.004-0.148L82.904,72.575L82.904,72.575z M83.499,72.277l2.015,0.023
					c4.296,0.048,12.445,0.14,13.003,0.146l0.192,0.002c0.938,0,1.68-0.208,2.251-1.224c0.307-0.546,0.147-2.109-0.415-4.082
					c-0.834-2.924-2.463-6.372-3.745-7.081c-0.36-0.197-0.678-0.295-0.968-0.295c-0.441,0-0.838,0.222-1.326,0.741
					C93.877,61.185,85.488,70.149,83.499,72.277z M96.739,59.691c0.068,0.033,0.137,0.068,0.208,0.106
					c1.351,0.747,3.039,4.279,3.89,7.264c0.01,0.03,0.019,0.063,0.027,0.092c-0.01-0.033-0.019-0.063-0.026-0.093
					c-0.841-2.943-2.488-6.488-3.891-7.263C96.876,59.759,96.808,59.724,96.739,59.691z M93.384,61.265
					c-0.784,0.838-1.98,2.117-3.29,3.518C91.403,63.381,92.6,62.103,93.384,61.265z M94.703,59.905
					c-0.14,0.114-0.267,0.236-0.38,0.354C94.454,60.124,94.581,60.006,94.703,59.905z"/>
			</g>
		</g>
		<g>
			<g>
				<path fill="#FFEB7B" d="M82.68,72.52c0,0,0.006-15.945,0.006-16.762c0-0.818,0.001-2.068-1.31-2.898
					c-1.634-1.034-9.6,2.275-10.736,4.711c-0.602,1.29-0.225,2.093,0.497,2.854c0.72,0.763,11.493,12.148,11.493,12.148L82.68,72.52
					z"/>
				<path fill="#FFFFFF" d="M82.631,72.797l-0.111-0.119c0,0-10.774-11.388-11.493-12.149c-0.675-0.71-1.202-1.568-0.526-3.021
					c0.667-1.428,3.271-2.799,4.357-3.322c2.112-1.017,4.31-1.673,5.599-1.673c0.437,0,0.771,0.073,1.001,0.218
					c1.382,0.875,1.382,2.222,1.381,3.027l-0.006,16.821L82.631,72.797z M80.456,52.816c-2.69,0-8.729,2.786-9.679,4.818
					c-0.567,1.217-0.223,1.954,0.471,2.686c0.66,0.699,9.763,10.32,11.279,11.924l0.007-16.487c0-0.791,0.001-1.985-1.24-2.77
					C81.115,52.874,80.834,52.816,80.456,52.816z"/>
			</g>
			<g>
				<path fill="#FFEB7B" d="M82.631,72.797l-0.111-0.119c0,0-10.774-11.388-11.493-12.149c-0.675-0.71-1.202-1.568-0.526-3.021
					c1.008-2.156,7.128-4.995,9.956-4.995c0.437,0,0.771,0.073,1.001,0.218c1.382,0.875,1.382,2.222,1.381,3.027l-0.006,16.821
					L82.631,72.797z M80.456,52.816c-2.69,0-8.729,2.786-9.679,4.818c-0.567,1.217-0.223,1.954,0.471,2.686
					c0.66,0.699,9.763,10.32,11.279,11.924l0.007-16.487c0-0.791,0.001-1.985-1.24-2.77C81.115,52.874,80.834,52.816,80.456,52.816z
					"/>
				<path fill="#FFFFFF" d="M82.632,73.02l-0.224-0.238c0,0-10.773-11.386-11.493-12.149c-0.676-0.713-1.271-1.65-0.553-3.189
					c1.025-2.193,7.229-5.082,10.094-5.082c0.466,0,0.83,0.082,1.082,0.242c1.455,0.92,1.452,2.319,1.452,3.155l-0.005,16.879
					L82.632,73.02z M82.686,55.764L82.68,72.52L82.686,55.764z M80.456,52.968c-3.094,0-8.741,3.019-9.541,4.729
					c-0.532,1.145-0.226,1.812,0.442,2.518c0.47,0.496,5.2,5.497,8.444,8.926l2.573,2.72l0.007-16.104c0-0.802,0-1.901-1.169-2.642
					C81.061,53.02,80.798,52.968,80.456,52.968z M71.012,60.289c0.042,0.045,0.083,0.091,0.125,0.135
					c0.379,0.4,3.533,3.735,6.442,6.811c-2.909-3.075-6.063-6.41-6.442-6.811C71.095,60.38,71.054,60.335,71.012,60.289z
					 M70.594,57.675c-0.476,1.091-0.245,1.811,0.31,2.486C70.406,59.557,70.1,58.813,70.594,57.675z M80.456,52.665
					c-2.097,0-5.223,1.285-7.402,2.686C75.354,53.909,78.65,52.665,80.456,52.665z"/>
			</g>
		</g>
		<g>
			<g>
				<path fill="#FFEB7B" d="M82.541,72.563c0,0-10.459-11.316-10.995-11.896c-0.536-0.581-1.355-1.469-2.832-1.064
					c-1.836,0.503-5.317,8.877-4.524,11.468c0.42,1.37,1.215,1.653,2.225,1.648c1.011-0.005,16.128-0.079,16.128-0.079
					L82.541,72.563z"/>
				<path fill="#FFFFFF" d="M66.389,72.87c-0.894,0-1.873-0.21-2.346-1.757c-0.541-1.772,0.867-6.244,2.472-9.148
					c0.569-1.032,1.408-2.305,2.159-2.511c0.26-0.071,0.514-0.107,0.758-0.107c1.104,0,1.779,0.732,2.227,1.216
					c0.536,0.579,10.994,11.896,10.994,11.896l0.042,0.044v0.285l-0.152,0.001c0,0-15.117,0.075-16.128,0.08H66.389z M69.432,59.652
					c-0.217,0-0.443,0.033-0.679,0.096c-0.497,0.136-1.217,0.998-1.971,2.363c-1.575,2.851-2.968,7.214-2.447,8.914
					c0.391,1.278,1.104,1.54,2.054,1.54v0.152l0.024-0.152c0.93-0.004,13.795-0.067,15.852-0.077
					c-1.335-1.444-10.334-11.182-10.831-11.72C70.999,60.297,70.402,59.652,69.432,59.652z"/>
			</g>
			<g>
				<path fill="#FFEB7B" d="M66.389,72.87c-0.894,0-1.873-0.21-2.346-1.757c-0.541-1.772,0.867-6.244,2.472-9.148
					c0.569-1.032,1.408-2.305,2.159-2.511c0.26-0.071,0.514-0.107,0.758-0.107c1.104,0,1.779,0.732,2.227,1.216
					c0.536,0.579,10.994,11.896,10.994,11.896l0.042,0.044v0.285l-0.152,0.001c0,0-15.116,0.075-16.127,0.08H66.389z M69.432,59.652
					c-0.217,0-0.443,0.033-0.679,0.096c-0.497,0.136-1.217,0.998-1.971,2.363c-1.575,2.851-2.967,7.214-2.447,8.914
					c0.391,1.278,1.104,1.54,2.054,1.54v0.152l0.024-0.152c0.93-0.004,13.795-0.067,15.852-0.077
					c-1.335-1.444-10.334-11.182-10.831-11.72C70.999,60.298,70.402,59.652,69.432,59.652z"/>
				<path fill="#FFFFFF" d="M66.416,73.021h-0.027c-0.894,0-1.985-0.212-2.491-1.863c-0.553-1.81,0.865-6.336,2.484-9.266
					c0.85-1.539,1.607-2.409,2.251-2.585c0.273-0.074,0.541-0.112,0.799-0.112c1.173,0,1.873,0.763,2.338,1.266
					c0.537,0.579,10.995,11.896,10.995,11.896l0.08,0.086l0.003,0.498l-0.303,0.002C82.545,72.943,67.428,73.018,66.416,73.021
					L66.416,73.021z M66.543,72.717L66.543,72.717c0.936-0.004,5.297-0.026,9.23-0.046L66.543,72.717z M82.453,72.468l0.088,0.095
					C82.54,72.562,82.509,72.529,82.453,72.468z M69.432,59.804c-0.202,0-0.416,0.031-0.639,0.091
					c-0.452,0.124-1.153,0.979-1.877,2.291c-1.561,2.823-2.944,7.131-2.437,8.796c0.366,1.192,1.003,1.432,1.909,1.432h0.024
					l15.505-0.075c-1.917-2.076-10.124-10.954-10.597-11.465C70.904,60.421,70.335,59.804,69.432,59.804z M67.686,60.445
					c-0.326,0.403-0.677,0.939-1.037,1.594c-1.589,2.876-2.991,7.293-2.459,9.031c0.166,0.543,0.394,0.91,0.659,1.158
					c-0.266-0.248-0.493-0.615-0.659-1.158c-0.532-1.738,0.87-6.155,2.46-9.031C66.898,61.585,67.275,60.956,67.686,60.445z
					 M71.368,60.476c0.063,0.066,0.121,0.129,0.178,0.191c0.113,0.121,0.668,0.722,1.473,1.594
					c-0.805-0.871-1.359-1.473-1.473-1.595C71.49,60.607,71.432,60.543,71.368,60.476z M69.432,59.5
					c-0.23,0-0.471,0.034-0.718,0.102c-0.017,0.004-0.034,0.009-0.051,0.016c0.017-0.007,0.033-0.011,0.051-0.016
					C68.962,59.534,69.202,59.5,69.432,59.5z"/>
			</g>
		</g>
		<g>
			<g>
				<polygon fill="#FFEB7B" points="82.655,72.752 82.587,72.828 82.656,72.826 				"/>
				<polygon fill="#FFFFFF" points="82.239,72.985 82.802,72.361 82.812,72.976 				"/>
			</g>
			<g>
				<polygon fill="#FFEB7B" points="82.239,72.985 82.802,72.361 82.812,72.976 				"/>
				<polygon fill="#FFFFFF" points="81.891,73.144 82.949,71.973 82.967,73.126 				"/>
			</g>
		</g>
		<g>
			<g>
				<polygon fill="#FFEB7B" points="82.968,72.823 82.768,72.632 82.655,72.752 82.656,72.826 				"/>
				<polygon fill="#FFFFFF" points="82.505,72.98 82.502,72.693 82.762,72.415 83.34,72.972 				"/>
			</g>
			<g>
				<polygon fill="#FFEB7B" points="82.505,72.98 82.502,72.693 82.762,72.415 83.34,72.972 				"/>
				<path fill="#FFFFFF" d="M82.355,73.135l-0.008-0.501l0.408-0.436l0.958,0.921L82.355,73.135z M82.655,72.752l0.001,0.074
					l0.312-0.003l-0.2-0.191L82.655,72.752z"/>
			</g>
		</g>
		<g>
			<g>
				<polygon fill="#FFEB7B" points="82.652,72.521 82.655,72.752 82.768,72.632 				"/>
				<polygon fill="#FFFFFF" points="82.507,73.132 82.496,72.159 82.981,72.626 				"/>
			</g>
			<g>
				<polygon fill="#FFEB7B" points="82.507,73.132 82.496,72.159 82.981,72.626 				"/>
				<path fill="#FFFFFF" d="M82.357,73.515l-0.018-1.717l0.855,0.823L82.357,73.515z M82.652,72.521l0.003,0.231l0.112-0.12
					L82.652,72.521z"/>
			</g>
		</g>
		<g>
			<g>
				<path fill="#FFEB7B" d="M82.587,72.914c0,0-10.449,11.327-10.986,11.907c-0.534,0.58-1.354,1.469-0.967,3.05
					c0.483,1.969,8.313,5.634,10.718,4.761c1.272-0.461,1.528-1.317,1.516-2.403c-0.012-1.086-0.209-17.316-0.209-17.316
					L82.587,72.914z"/>
				<path fill="#FFFFFF" d="M80.444,92.916c-3.182,0-9.513-3.184-9.959-5.009c-0.408-1.661,0.477-2.617,1.004-3.188l11.031-11.957
					l0.286-0.004l0.004,0.151c0,0,0.196,16.231,0.209,17.317c0.013,1.015-0.176,2.025-1.616,2.548
					C81.145,92.869,80.823,92.916,80.444,92.916z M82.509,73.223L71.712,84.925c-0.517,0.561-1.299,1.409-0.931,2.909
					c0.416,1.697,6.648,4.778,9.663,4.778c0.342,0,0.631-0.042,0.855-0.123c1.191-0.433,1.428-1.216,1.414-2.259
					C82.703,89.233,82.537,75.469,82.509,73.223z"/>
			</g>
			<g>
				<path fill="#FFEB7B" d="M80.444,92.916c-3.182,0-9.513-3.184-9.959-5.009c-0.408-1.661,0.477-2.617,1.004-3.188l11.031-11.957
					l0.286-0.004l0.004,0.151c0,0,0.196,16.231,0.209,17.317c0.013,1.015-0.176,2.025-1.616,2.548
					C81.145,92.869,80.823,92.916,80.444,92.916z M82.509,73.223L71.712,84.925c-0.517,0.561-1.299,1.409-0.931,2.909
					c0.416,1.697,6.648,4.778,9.663,4.778c0.342,0,0.631-0.042,0.855-0.123c1.191-0.433,1.428-1.216,1.414-2.259
					C82.703,89.233,82.537,75.469,82.509,73.223z"/>
				<path fill="#FFFFFF" d="M80.444,93.067c-3.309,0-9.637-3.208-10.105-5.124c-0.428-1.739,0.489-2.733,1.039-3.327l11.074-12.004
					l0.508-0.009l0.003,0.306c0,0,0.197,16.229,0.209,17.316c0.013,1.02-0.182,2.137-1.717,2.692
					C81.181,93.018,80.84,93.067,80.444,93.067z M82.86,90.584c-0.043,0.813-0.311,1.581-1.425,2.018
					C82.503,92.185,82.813,91.492,82.86,90.584z M82.361,73.607l-10.535,11.42c-0.525,0.57-1.245,1.348-0.896,2.771
					c0.396,1.613,6.621,4.662,9.515,4.662c0.324,0,0.596-0.038,0.803-0.113c1.111-0.403,1.328-1.107,1.316-2.113
					c-0.008-0.631-0.078-6.349-0.135-11.046L82.361,73.607z M82.863,89.948c0.003,0.131,0.003,0.226,0.004,0.28
					c0,0.035,0,0.069,0,0.104c0-0.034,0-0.067,0-0.104C82.866,90.174,82.866,90.079,82.863,89.948z M75.511,80.584l-3.91,4.238
					c-0.375,0.404-0.933,1.011-1.046,1.938c0.113-0.927,0.671-1.533,1.046-1.938L75.511,80.584z"/>
			</g>
		</g>
		<g>
			<g>
				<path fill="#FFEB7B" d="M82.521,72.809c0,0-14.849-0.117-15.61-0.122c-0.762-0.007-1.926-0.016-2.708,1.388
					c-0.975,1.745,2.054,10.322,4.314,11.561c1.196,0.654,1.946,0.254,2.66-0.514c0.715-0.77,11.393-12.259,11.393-12.259
					L82.521,72.809z"/>
				<path fill="#FFFFFF" d="M69.626,86.115L69.626,86.115c-0.368,0-0.755-0.113-1.184-0.348c-1.44-0.789-3.129-4.369-3.985-7.338
					c-0.293-1.016-0.918-3.481-0.389-4.43c0.818-1.467,2.077-1.467,2.684-1.467h0.159l15.676,0.124l0.19,0.205l-0.096,0.103
					c0,0-10.679,11.49-11.393,12.259C70.903,85.639,70.365,86.115,69.626,86.115z M66.752,72.837c-0.875,0-1.773,0.158-2.417,1.311
					c-0.329,0.59-0.173,2.159,0.415,4.197c0.853,2.951,2.521,6.434,3.839,7.156c0.382,0.209,0.722,0.311,1.037,0.311l0,0
					c0.492,0,0.922-0.237,1.44-0.795c0.657-0.708,9.783-10.527,11.205-12.059L66.752,72.837z"/>
			</g>
			<g>
				<path fill="#FFEB7B" d="M69.626,86.115L69.626,86.115c-0.368,0-0.755-0.113-1.184-0.348c-1.44-0.789-3.129-4.369-3.985-7.338
					c-0.293-1.016-0.918-3.481-0.389-4.43c0.818-1.467,2.077-1.467,2.684-1.467h0.159l15.676,0.124l0.19,0.205l-0.096,0.103
					c0,0-10.679,11.49-11.393,12.259C70.903,85.639,70.365,86.115,69.626,86.115z M66.752,72.837c-0.875,0-1.773,0.158-2.416,1.311
					c-0.33,0.59-0.174,2.159,0.414,4.197c0.853,2.951,2.521,6.434,3.839,7.156c0.382,0.209,0.722,0.311,1.037,0.311l0,0
					c0.492,0,0.922-0.237,1.44-0.795c0.657-0.708,9.783-10.527,11.205-12.059L66.752,72.837z"/>
				<path fill="#FFFFFF" d="M69.626,86.267c-0.396,0-0.806-0.118-1.257-0.365c-1.477-0.808-3.192-4.432-4.059-7.43
					c-0.37-1.285-0.911-3.582-0.375-4.546c0.861-1.544,2.182-1.544,2.816-1.544h0.161l15.741,0.123l0.331,0.357l-0.192,0.205
					c0,0-10.678,11.49-11.391,12.26C70.994,85.766,70.424,86.267,69.626,86.267z M68.558,85.656
					c0.388,0.208,0.738,0.307,1.068,0.307l0,0C69.296,85.963,68.945,85.864,68.558,85.656z M66.752,72.989
					c-0.958,0-1.714,0.21-2.284,1.232c-0.304,0.547-0.141,2.11,0.429,4.082c0.844,2.921,2.482,6.361,3.766,7.063
					c0.358,0.197,0.675,0.292,0.964,0.292c0.444,0,0.842-0.223,1.329-0.746c0.467-0.503,5.211-5.608,8.428-9.07l2.542-2.735
					L66.752,72.989z M64.666,78.597c0.858,2.875,2.457,6.24,3.822,7.022C67.172,84.862,65.537,81.509,64.666,78.597z M71.147,85.151
					c-0.129,0.138-0.255,0.257-0.377,0.357C70.909,85.394,71.036,85.271,71.147,85.151z M64.326,73.868
					c-0.042,0.065-0.083,0.133-0.124,0.206c-0.067,0.121-0.114,0.27-0.146,0.441c0.032-0.177,0.081-0.325,0.146-0.441
					C64.243,74.001,64.284,73.934,64.326,73.868z M82.569,72.862l-0.655,0.705C82.328,73.121,82.569,72.862,82.569,72.862
					L82.569,72.862z M66.751,72.686c-0.354,0-0.94,0-1.521,0.32C65.723,72.739,66.256,72.686,66.751,72.686L66.751,72.686z
					 M66.754,72.686l9.739,0.076L66.754,72.686z"/>
			</g>
		</g>
		<g>
			<g>
				<path fill="#FFEB7B" d="M82.744,72.914c0,0,0.043,15.944,0.044,16.763c0.003,0.817,0.007,2.067,1.321,2.893
					c1.635,1.028,9.591-2.308,10.72-4.749c0.599-1.291,0.219-2.093-0.505-2.852c-0.723-0.76-11.529-12.108-11.529-12.108
					L82.744,72.914z"/>
				<path fill="#FFFFFF" d="M85.017,92.913C85.017,92.913,85.017,92.913,85.017,92.913c-0.431,0-0.762-0.072-0.989-0.215
					c-1.386-0.871-1.389-2.217-1.39-3.021c-0.004-0.818-0.045-16.762-0.045-16.762l-0.001-0.061l0.201-0.218l0.112,0.118
					c0,0,10.809,11.35,11.529,12.109c0.676,0.708,1.208,1.564,0.534,3.02C93.985,90.006,87.777,92.913,85.017,92.913z
					 M82.896,73.189c0.007,2.116,0.043,15.732,0.045,16.486c0.001,0.79,0.006,1.983,1.248,2.766
					c0.178,0.111,0.456,0.167,0.826,0.167c0.001,0,0.001,0,0.001,0c3.135,0,8.862-3.096,9.675-4.853
					c0.564-1.218,0.217-1.954-0.478-2.683C93.552,84.376,84.417,74.784,82.896,73.189z"/>
			</g>
			<g>
				<path fill="#FFEB7B" d="M85.017,92.913C85.017,92.913,85.017,92.913,85.017,92.913c-0.431,0-0.762-0.072-0.989-0.215
					c-1.386-0.871-1.389-2.217-1.39-3.021c-0.004-0.818-0.045-16.762-0.045-16.762l-0.001-0.061l0.201-0.218l0.112,0.118
					c0,0,10.809,11.35,11.529,12.109c0.676,0.708,1.208,1.564,0.534,3.02C93.985,90.006,87.777,92.913,85.017,92.913z
					 M82.896,73.189c0.007,2.116,0.043,15.732,0.045,16.486c0.001,0.79,0.006,1.983,1.248,2.766
					c0.178,0.111,0.456,0.167,0.826,0.167c0.001,0,0.001,0,0.001,0c2.69,0,8.729-2.805,9.675-4.853
					c0.564-1.218,0.217-1.954-0.478-2.683C93.552,84.376,84.417,74.784,82.896,73.189z"/>
				<path fill="#FFFFFF" d="M85.017,93.064c-0.459,0-0.819-0.08-1.07-0.237c-1.458-0.916-1.461-2.315-1.463-3.15
					c-0.002-0.817-0.044-16.762-0.044-16.762l-0.001-0.119l0.354-0.381l0.224,0.235c0,0,10.809,11.349,11.529,12.108
					c0.679,0.712,1.276,1.647,0.563,3.188C94.108,90.106,87.813,93.064,85.017,93.064z M84.357,92.68
					c0.178,0.054,0.398,0.081,0.658,0.081h0.001C84.756,92.761,84.535,92.733,84.357,92.68z M90.698,91.016
					c-2.021,1.003-4.293,1.745-5.682,1.745C86.576,92.761,88.771,92.001,90.698,91.016z M83.051,73.571l0.044,16.104
					c0.001,0.802,0.003,1.899,1.178,2.637c0.149,0.094,0.406,0.145,0.743,0.145c3.095,0,8.74-3.039,9.538-4.765
					c0.53-1.146,0.221-1.812-0.45-2.515C93.472,84.515,85.148,75.773,83.051,73.571z M82.766,81.012
					c0.011,4.072,0.021,8.237,0.022,8.662L82.766,81.012z M94.616,85.301c0.479,0.61,0.749,1.365,0.213,2.52
					c-0.007,0.016-0.015,0.032-0.022,0.05c0.008-0.018,0.016-0.034,0.022-0.05C95.345,86.707,95.148,85.976,94.616,85.301z
					 M82.795,72.86l0.213,0.224c0.4,0.42,1.327,1.393,2.486,2.612C83.938,74.062,82.803,72.868,82.795,72.86L82.795,72.86z"/>
			</g>
		</g>
		<g>
			<g>
				<path fill="#FFEB7B" d="M82.884,72.921c0,0,10.493,11.28,11.031,11.858c0.537,0.578,1.36,1.464,2.836,1.055
					c1.833-0.508,5.289-8.896,4.489-11.483c-0.423-1.367-1.221-1.649-2.23-1.641c-1.012,0.009-16.127,0.136-16.127,0.136
					L82.884,72.921z"/>
				<path fill="#FFFFFF" d="M96.024,86.091L96.024,86.091c-1.099,0-1.773-0.728-2.22-1.208
					c-0.539-0.578-11.034-11.858-11.034-11.858l-0.039-0.044l-0.003-0.286h0.152c0,0,15.116-0.127,16.126-0.136l0.045-0.001
					c0.886,0,1.855,0.207,2.333,1.748c0.548,1.771-0.847,6.247-2.442,9.156c-0.565,1.033-1.4,2.312-2.151,2.519
					C96.527,86.054,96.271,86.091,96.024,86.091z M83.16,72.994c1.339,1.439,10.367,11.146,10.866,11.682
					c0.436,0.469,1.032,1.111,1.998,1.111l0,0c0.218,0,0.448-0.033,0.686-0.1c0.498-0.138,1.214-1.002,1.965-2.372
					c1.566-2.855,2.944-7.223,2.42-8.92c-0.395-1.273-1.102-1.533-2.043-1.533h-0.041C98.08,72.87,85.216,72.979,83.16,72.994z"/>
			</g>
			<g>
				<path fill="#FFEB7B" d="M96.024,86.091L96.024,86.091c-1.099,0-1.773-0.728-2.22-1.208
					c-0.539-0.578-11.034-11.858-11.034-11.858l-0.039-0.044l-0.003-0.286h0.152c0,0,15.116-0.127,16.126-0.136l0.045-0.001
					c0.886,0,1.855,0.207,2.333,1.748c0.548,1.771-0.847,6.247-2.442,9.156c-0.565,1.033-1.4,2.312-2.151,2.519
					C96.527,86.054,96.271,86.091,96.024,86.091z M83.16,72.994c1.339,1.439,10.367,11.146,10.866,11.682
					c0.436,0.469,1.032,1.111,1.998,1.111l0,0c0.218,0,0.448-0.033,0.686-0.1c0.498-0.138,1.214-1.002,1.965-2.372
					c1.566-2.855,2.944-7.223,2.42-8.92c-0.395-1.273-1.102-1.533-2.043-1.533h-0.041C98.08,72.87,85.216,72.979,83.16,72.994z"/>
				<path fill="#FFFFFF" d="M96.024,86.243c-1.164,0-1.866-0.757-2.332-1.257C93.153,84.407,82.66,73.127,82.66,73.127l-0.08-0.086
					l-0.004-0.497l0.304-0.003c0,0,15.115-0.126,16.126-0.135l0.045-0.001c0.888,0,1.972,0.211,2.479,1.855
					c0.559,1.807-0.845,6.337-2.454,9.274c-0.846,1.542-1.602,2.414-2.245,2.592C96.556,86.204,96.285,86.243,96.024,86.243z
					 M96.564,85.88c-0.184,0.039-0.363,0.059-0.535,0.06C96.202,85.938,96.381,85.919,96.564,85.88z M83.506,73.144
					c1.925,2.069,10.157,10.918,10.634,11.43c0.416,0.447,0.985,1.062,1.885,1.062c0.202,0,0.42-0.031,0.645-0.094
					c0.452-0.124,1.151-0.984,1.873-2.298c1.552-2.83,2.921-7.142,2.407-8.803c-0.368-1.188-0.999-1.426-1.897-1.426h-0.04
					c-0.761,0.006-9.516,0.079-13.797,0.115L83.506,73.144z M98.697,83.589c-0.272,0.481-0.652,1.092-1.055,1.558
					C97.972,84.768,98.327,84.241,98.697,83.589z M90.938,81.58c1.575,1.693,2.801,3.012,2.977,3.199
					c0.047,0.05,0.096,0.104,0.147,0.158c-0.051-0.055-0.101-0.107-0.147-0.159C93.741,84.592,92.515,83.273,90.938,81.58z
					 M99.052,72.709c0.724,0,1.444,0.137,1.925,1.006C100.496,72.846,99.775,72.709,99.052,72.709z M82.884,72.921
					c0.003,0.004,0.074,0.079,0.199,0.215c-0.012-0.013-0.022-0.025-0.033-0.037L82.884,72.921z M99.038,72.709l-0.029,0.001
					c-0.559,0.005-5.424,0.045-9.666,0.081c4.242-0.036,9.108-0.076,9.666-0.081L99.038,72.709z"/>
			</g>
		</g>
	</g>
	<g>
		<g>
			<defs>
				<ellipse id="SVGID_1_" cx="49.471" cy="92.76" rx="28.42" ry="7.977"/>
			</defs>
			<clipPath id="SVGID_2_">
				<use xlink:href="#SVGID_1_"  overflow="visible"/>
			</clipPath>
			<g clip-path="url(#SVGID_2_)">
				<g>
					<g>
						<rect x="21.049" y="84.787" fill="#FFFFFF" width="56.843" height="15.95"/>
					</g>
				</g>
			</g>
			<g clip-path="url(#SVGID_2_)">
				<g>
					<g>
						<path fill="#FFFFFF" d="M70.227,92.76c0,1.628-9.296,2.952-20.754,2.952c-11.458,0-20.754-1.324-20.754-2.952
							c0-1.629,9.296-2.951,20.754-2.951C60.931,89.809,70.227,91.131,70.227,92.76z"/>
					</g>
				</g>
			</g>
			<g clip-path="url(#SVGID_2_)">
				<g>
					<g>
						<ellipse fill="#FFFFFF" cx="49.473" cy="92.76" rx="20.589" ry="2.928"/>
					</g>
				</g>
			</g>
			<g clip-path="url(#SVGID_2_)">
				<g>
					<g>
						<path fill="#FFFFFF" d="M69.896,92.76c0,1.605-9.147,2.904-20.424,2.904c-11.277,0-20.424-1.299-20.424-2.904
							c0-1.6,9.147-2.903,20.424-2.903C60.749,89.856,69.896,91.16,69.896,92.76z"/>
					</g>
				</g>
			</g>
			<g clip-path="url(#SVGID_2_)">
				<g>
					<g>
						<path fill="#FFFFFF" d="M69.732,92.76c0,1.591-9.067,2.882-20.26,2.882c-11.192,0-20.259-1.291-20.259-2.882
							s9.067-2.881,20.259-2.881C60.665,89.879,69.732,91.169,69.732,92.76z"/>
					</g>
				</g>
			</g>
			<g clip-path="url(#SVGID_2_)">
				<g>
					<g>
						<path fill="#FFFFFF" d="M69.567,92.76c0,1.581-8.998,2.857-20.095,2.857c-11.096,0-20.094-1.276-20.094-2.857
							c0-1.576,8.998-2.857,20.094-2.857C60.569,89.902,69.567,91.184,69.567,92.76z"/>
					</g>
				</g>
			</g>
			<g clip-path="url(#SVGID_2_)">
				<g>
					<g>
						<path fill="#FFFFFF" d="M69.407,92.76c0,1.567-8.923,2.835-19.935,2.835s-19.935-1.268-19.935-2.835
							c0-1.562,8.923-2.834,19.935-2.834S69.407,91.198,69.407,92.76z"/>
					</g>
				</g>
			</g>
			<g clip-path="url(#SVGID_2_)">
				<g>
					<g>
						<path fill="#FFFFFF" d="M69.243,92.76c0,1.553-8.855,2.811-19.771,2.811c-10.916,0-19.771-1.258-19.771-2.811
							s8.855-2.811,19.771-2.811C60.388,89.949,69.243,91.207,69.243,92.76z"/>
					</g>
				</g>
			</g>
			<g clip-path="url(#SVGID_2_)">
				<g>
					<g>
						<path fill="#FFFFFF" d="M69.077,92.76c0,1.544-8.774,2.792-19.604,2.792c-10.832,0-19.606-1.248-19.606-2.792
							c0-1.539,8.774-2.788,19.606-2.788C60.303,89.972,69.077,91.221,69.077,92.76z"/>
					</g>
				</g>
			</g>
			<g clip-path="url(#SVGID_2_)">
				<g>
					<g>
						<path fill="#FFFFFF" d="M68.914,92.76c0,1.53-8.707,2.764-19.441,2.764c-10.736,0-19.442-1.233-19.442-2.764
							c0-1.525,8.706-2.764,19.442-2.764C60.207,89.996,68.914,91.234,68.914,92.76z"/>
					</g>
				</g>
			</g>
			<g clip-path="url(#SVGID_2_)">
				<g>
					<g>
						<path fill="#FFFFFF" d="M68.75,92.76c0,1.517-8.627,2.745-19.277,2.745c-10.651,0-19.277-1.229-19.277-2.745
							c0-1.516,8.626-2.74,19.277-2.74C60.123,90.02,68.75,91.244,68.75,92.76z"/>
					</g>
				</g>
			</g>
			<g clip-path="url(#SVGID_2_)">
				<g>
					<g>
						<path fill="#FAFDFF" d="M68.589,92.76c0,1.503-8.562,2.718-19.116,2.718c-10.555,0-19.117-1.215-19.117-2.718
							c0-1.502,8.562-2.717,19.117-2.717C60.027,90.043,68.589,91.258,68.589,92.76z"/>
					</g>
				</g>
			</g>
			<g clip-path="url(#SVGID_2_)">
				<g>
					<g>
						<path fill="#F9F9F9" d="M68.425,92.76c0,1.487-8.482,2.698-18.952,2.698S30.52,94.247,30.52,92.76s8.483-2.694,18.953-2.694
							S68.425,91.272,68.425,92.76z"/>
					</g>
				</g>
			</g>
			<g clip-path="url(#SVGID_2_)">
				<g>
					<g>
						<path fill="#F9F9F9" d="M68.26,92.76c0,1.478-8.413,2.675-18.787,2.675c-10.375,0-18.788-1.197-18.788-2.675
							c0-1.474,8.413-2.67,18.788-2.67C59.847,90.09,68.26,91.286,68.26,92.76z"/>
					</g>
				</g>
			</g>
			<g clip-path="url(#SVGID_2_)">
				<g>
					<g>
						<path fill="#F7F8F9" d="M68.101,92.76c0,1.464-8.339,2.651-18.628,2.651c-10.29,0-18.629-1.188-18.629-2.651
							c0-1.46,8.339-2.646,18.629-2.646C59.762,90.113,68.101,91.3,68.101,92.76z"/>
					</g>
				</g>
			</g>
			<g clip-path="url(#SVGID_2_)">
				<g>
					<g>
						<ellipse fill="#F7F8F9" cx="49.473" cy="92.76" rx="18.464" ry="2.628"/>
					</g>
				</g>
			</g>
			<g clip-path="url(#SVGID_2_)">
				<g>
					<g>
						<ellipse fill="#F7F7F7" cx="49.472" cy="92.76" rx="18.3" ry="2.605"/>
					</g>
				</g>
			</g>
			<g clip-path="url(#SVGID_2_)">
				<g>
					<g>
						<path fill="#F7F7F7" d="M67.607,92.76c0,1.427-8.117,2.581-18.135,2.581c-10.019,0-18.134-1.154-18.134-2.581
							c0-1.422,8.115-2.577,18.134-2.577C59.49,90.183,67.607,91.338,67.607,92.76z"/>
					</g>
				</g>
			</g>
			<g clip-path="url(#SVGID_2_)">
				<g>
					<g>
						<path fill="#F7F7F7" d="M67.442,92.76c0,1.413-8.041,2.558-17.97,2.558c-9.928,0-17.971-1.145-17.971-2.558
							c0-1.412,8.042-2.558,17.971-2.558C59.401,90.202,67.442,91.348,67.442,92.76z"/>
					</g>
				</g>
			</g>
			<g clip-path="url(#SVGID_2_)">
				<g>
					<g>
						<ellipse fill="#F5F5F5" cx="49.473" cy="92.76" rx="17.811" ry="2.534"/>
					</g>
				</g>
			</g>
			<g clip-path="url(#SVGID_2_)">
				<g>
					<g>
						<ellipse fill="#F4F5F5" cx="49.472" cy="92.76" rx="17.646" ry="2.51"/>
					</g>
				</g>
			</g>
			<g clip-path="url(#SVGID_2_)">
				<g>
					<g>
						<path fill="#F4F5F5" d="M66.954,92.76c0,1.376-7.823,2.486-17.481,2.486c-9.658,0-17.481-1.11-17.481-2.486
							c0-1.37,7.824-2.482,17.481-2.482C59.131,90.277,66.954,91.39,66.954,92.76z"/>
					</g>
				</g>
			</g>
			<g clip-path="url(#SVGID_2_)">
				<g>
					<g>
						<path fill="#F3F4F5" d="M66.795,92.76c0,1.361-7.756,2.464-17.322,2.464c-9.567,0-17.322-1.103-17.322-2.464
							c0-1.356,7.755-2.463,17.322-2.463C59.039,90.297,66.795,91.403,66.795,92.76z"/>
					</g>
				</g>
			</g>
			<g clip-path="url(#SVGID_2_)">
				<g>
					<g>
						<ellipse fill="#F3F2F2" cx="49.472" cy="92.76" rx="17.157" ry="2.44"/>
					</g>
				</g>
			</g>
			<g clip-path="url(#SVGID_2_)">
				<g>
					<g>
						<path fill="#F3F2F2" d="M66.465,92.76c0,1.338-7.605,2.417-16.992,2.417c-9.386,0-16.994-1.079-16.994-2.417
							c0-1.332,7.608-2.416,16.994-2.416C58.859,90.344,66.465,91.428,66.465,92.76z"/>
					</g>
				</g>
			</g>
			<g clip-path="url(#SVGID_2_)">
				<g>
					<g>
						<path fill="#F3F2F2" d="M66.301,92.76c0,1.323-7.532,2.394-16.828,2.394c-9.296,0-16.828-1.07-16.828-2.394
							c0-1.318,7.532-2.393,16.828-2.393C58.769,90.367,66.301,91.441,66.301,92.76z"/>
					</g>
				</g>
			</g>
			<g clip-path="url(#SVGID_2_)">
				<g>
					<g>
						<ellipse fill="#F1F1F1" cx="49.472" cy="92.76" rx="16.664" ry="2.369"/>
					</g>
				</g>
			</g>
			<g clip-path="url(#SVGID_2_)">
				<g>
					<g>
						<path fill="#F0EFEF" d="M65.976,92.76c0,1.301-7.389,2.347-16.503,2.347c-9.115,0-16.504-1.046-16.504-2.347
							c0-1.295,7.389-2.346,16.504-2.346C58.587,90.414,65.976,91.465,65.976,92.76z"/>
					</g>
				</g>
			</g>
			<g clip-path="url(#SVGID_2_)">
				<g>
					<g>
						<path fill="#EFEFEF" d="M65.813,92.76c0,1.286-7.314,2.323-16.34,2.323c-9.025,0-16.34-1.037-16.34-2.323
							c0-1.281,7.315-2.323,16.34-2.323C58.498,90.437,65.813,91.479,65.813,92.76z"/>
					</g>
				</g>
			</g>
			<g clip-path="url(#SVGID_2_)">
				<g>
					<g>
						<ellipse fill="#EFEFEF" cx="49.472" cy="92.76" rx="16.175" ry="2.304"/>
					</g>
				</g>
			</g>
			<g clip-path="url(#SVGID_2_)">
				<g>
					<g>
						<ellipse fill="#EFEDED" cx="49.473" cy="92.76" rx="16.016" ry="2.276"/>
					</g>
				</g>
			</g>
			<g clip-path="url(#SVGID_2_)">
				<g>
					<g>
						<path fill="#ECECEC" d="M65.323,92.76c0,1.243-7.096,2.257-15.851,2.257c-8.754,0-15.851-1.014-15.851-2.257
							c0-1.242,7.097-2.253,15.851-2.253C58.228,90.507,65.323,91.518,65.323,92.76z"/>
					</g>
				</g>
			</g>
			<g clip-path="url(#SVGID_2_)">
				<g>
					<g>
						<ellipse fill="#EBEBEB" cx="49.473" cy="92.76" rx="15.686" ry="2.229"/>
					</g>
				</g>
			</g>
			<g clip-path="url(#SVGID_2_)">
				<g>
					<g>
						<path fill="#EBEAEA" d="M64.995,92.76c0,1.221-6.949,2.211-15.522,2.211c-8.574,0-15.521-0.99-15.521-2.211
							c0-1.216,6.948-2.205,15.521-2.205C58.046,90.555,64.995,91.544,64.995,92.76z"/>
					</g>
				</g>
			</g>
			<g clip-path="url(#SVGID_2_)">
				<g>
					<g>
						<path fill="#EBEAEA" d="M64.828,92.76c0,1.206-6.872,2.188-15.355,2.188s-15.357-0.981-15.357-2.188
							c0-1.205,6.874-2.182,15.357-2.182S64.828,91.555,64.828,92.76z"/>
					</g>
				</g>
			</g>
			<g clip-path="url(#SVGID_2_)">
				<g>
					<g>
						<path fill="#E9E9EA" d="M64.671,92.76c0,1.196-6.806,2.164-15.198,2.164s-15.198-0.968-15.198-2.164
							c0-1.192,6.805-2.158,15.198-2.158S64.671,91.567,64.671,92.76z"/>
					</g>
				</g>
			</g>
			<g clip-path="url(#SVGID_2_)">
				<g>
					<g>
						<path fill="#E8E9E8" d="M64.504,92.76c0,1.183-6.729,2.141-15.031,2.141c-8.303,0-15.032-0.958-15.032-2.141
							c0-1.177,6.729-2.136,15.032-2.136C57.774,90.624,64.504,91.583,64.504,92.76z"/>
					</g>
				</g>
			</g>
			<g clip-path="url(#SVGID_2_)">
				<g>
					<g>
						<ellipse fill="#E7E7E7" cx="49.472" cy="92.76" rx="14.868" ry="2.115"/>
					</g>
				</g>
			</g>
			<g clip-path="url(#SVGID_2_)">
				<g>
					<g>
						<ellipse fill="#E7E6E6" cx="49.472" cy="92.76" rx="14.703" ry="2.093"/>
					</g>
				</g>
			</g>
			<g clip-path="url(#SVGID_2_)">
				<g>
					<g>
						<path fill="#E5E5E5" d="M64.011,92.76c0,1.14-6.507,2.069-14.538,2.069c-8.032,0-14.538-0.93-14.538-2.069
							s6.506-2.069,14.538-2.069C57.504,90.69,64.011,91.62,64.011,92.76z"/>
					</g>
				</g>
			</g>
			<g clip-path="url(#SVGID_2_)">
				<g>
					<g>
						<ellipse fill="#E4E4E4" cx="49.472" cy="92.76" rx="14.379" ry="2.046"/>
					</g>
				</g>
			</g>
			<g clip-path="url(#SVGID_2_)">
				<g>
					<g>
						<ellipse fill="#E3E4E3" cx="49.473" cy="92.76" rx="14.215" ry="2.022"/>
					</g>
				</g>
			</g>
			<g clip-path="url(#SVGID_2_)">
				<g>
					<g>
						<ellipse fill="#E3E2E2" cx="49.472" cy="92.76" rx="14.05" ry="2"/>
					</g>
				</g>
			</g>
			<g clip-path="url(#SVGID_2_)">
				<g>
					<g>
						<path fill="#E3E2E2" d="M63.363,92.76c0,1.093-6.222,1.975-13.891,1.975c-7.67,0-13.891-0.882-13.891-1.975
							c0-1.089,6.221-1.976,13.891-1.976C57.142,90.784,63.363,91.671,63.363,92.76z"/>
					</g>
				</g>
			</g>
			<g clip-path="url(#SVGID_2_)">
				<g>
					<g>
						<path fill="#E1E1E1" d="M63.198,92.76c0,1.078-6.146,1.953-13.726,1.953c-7.581,0-13.726-0.875-13.726-1.953
							c0-1.074,6.146-1.952,13.726-1.952C57.053,90.808,63.198,91.686,63.198,92.76z"/>
					</g>
				</g>
			</g>
			<g clip-path="url(#SVGID_2_)">
				<g>
					<g>
						<ellipse fill="#E0E0E0" cx="49.472" cy="92.76" rx="13.561" ry="1.93"/>
					</g>
				</g>
			</g>
			<g clip-path="url(#SVGID_2_)">
				<g>
					<g>
						<path fill="#DFDFDF" d="M62.87,92.76c0,1.056-5.998,1.904-13.397,1.904s-13.397-0.849-13.397-1.904
							c0-1.051,5.998-1.905,13.397-1.905S62.87,91.709,62.87,92.76z"/>
					</g>
				</g>
			</g>
			<g clip-path="url(#SVGID_2_)">
				<g>
					<g>
						<ellipse fill="#DFDFDE" cx="49.473" cy="92.76" rx="13.232" ry="1.882"/>
					</g>
				</g>
			</g>
			<g clip-path="url(#SVGID_2_)">
				<g>
					<g>
						<ellipse fill="#DFDEDD" cx="49.473" cy="92.76" rx="13.073" ry="1.858"/>
					</g>
				</g>
			</g>
			<g clip-path="url(#SVGID_2_)">
				<g>
					<g>
						<ellipse fill="#DDDDDC" cx="49.472" cy="92.76" rx="12.907" ry="1.835"/>
					</g>
				</g>
			</g>
			<g clip-path="url(#SVGID_2_)">
				<g>
					<g>
						<path fill="#DCDBDC" d="M62.216,92.76c0,1-5.706,1.816-12.743,1.816c-7.039,0-12.743-0.816-12.743-1.816
							c0-0.999,5.704-1.811,12.743-1.811C56.51,90.949,62.216,91.761,62.216,92.76z"/>
					</g>
				</g>
			</g>
			<g clip-path="url(#SVGID_2_)">
				<g>
					<g>
						<path fill="#DBDBDA" d="M62.056,92.76c0,0.991-5.635,1.788-12.583,1.788c-6.948,0-12.583-0.797-12.583-1.788
							c0-0.986,5.635-1.788,12.583-1.788C56.42,90.972,62.056,91.773,62.056,92.76z"/>
					</g>
				</g>
			</g>
			<g clip-path="url(#SVGID_2_)">
				<g>
					<g>
						<path fill="#DBDAD9" d="M61.892,92.76c0,0.977-5.562,1.77-12.419,1.77s-12.419-0.793-12.419-1.77
							c0-0.972,5.562-1.765,12.419-1.765S61.892,91.788,61.892,92.76z"/>
					</g>
				</g>
			</g>
			<g clip-path="url(#SVGID_2_)">
				<g>
					<g>
						<ellipse fill="#D8D8D7" cx="49.473" cy="92.76" rx="12.255" ry="1.742"/>
					</g>
				</g>
			</g>
			<g clip-path="url(#SVGID_2_)">
				<g>
					<g>
						<path fill="#D7D7D7" d="M61.563,92.76c0,0.953-5.413,1.723-12.09,1.723s-12.09-0.77-12.09-1.723
							c0-0.947,5.413-1.717,12.09-1.717S61.563,91.813,61.563,92.76z"/>
					</g>
				</g>
			</g>
			<g clip-path="url(#SVGID_2_)">
				<g>
					<g>
						<path fill="#D7D7D7" d="M61.397,92.76c0,0.938-5.338,1.699-11.925,1.699c-6.587,0-11.926-0.761-11.926-1.699
							c0-0.934,5.338-1.694,11.926-1.694C56.06,91.065,61.397,91.826,61.397,92.76z"/>
					</g>
				</g>
			</g>
			<g clip-path="url(#SVGID_2_)">
				<g>
					<g>
						<ellipse fill="#D5D6D5" cx="49.473" cy="92.76" rx="11.766" ry="1.677"/>
					</g>
				</g>
			</g>
			<g clip-path="url(#SVGID_2_)">
				<g>
					<g>
						<path fill="#D5D4D4" d="M61.073,92.76c0,0.915-5.195,1.651-11.601,1.651c-6.406,0-11.602-0.736-11.602-1.651
							c0-0.909,5.196-1.647,11.602-1.647C55.878,91.112,61.073,91.851,61.073,92.76z"/>
					</g>
				</g>
			</g>
			<g clip-path="url(#SVGID_2_)">
				<g>
					<g>
						<ellipse fill="#D4D3D3" cx="49.472" cy="92.76" rx="11.437" ry="1.628"/>
					</g>
				</g>
			</g>
			<g clip-path="url(#SVGID_2_)">
				<g>
					<g>
						<path fill="#D2D2D2" d="M60.749,92.76c0,0.888-5.051,1.605-11.276,1.605c-6.225,0-11.277-0.718-11.277-1.605
							s5.052-1.6,11.277-1.6C55.698,91.16,60.749,91.872,60.749,92.76z"/>
					</g>
				</g>
			</g>
			<g clip-path="url(#SVGID_2_)">
				<g>
					<g>
						<ellipse fill="#D1D2D2" cx="49.472" cy="92.76" rx="11.113" ry="1.581"/>
					</g>
				</g>
			</g>
			<g clip-path="url(#SVGID_2_)">
				<g>
					<g>
						<ellipse fill="#D0D1D1" cx="49.473" cy="92.76" rx="10.948" ry="1.559"/>
					</g>
				</g>
			</g>
			<g clip-path="url(#SVGID_2_)">
				<g>
					<g>
						<path fill="#D0D0CF" d="M60.256,92.76c0,0.851-4.829,1.534-10.783,1.534S38.689,93.61,38.689,92.76
							c0-0.845,4.829-1.534,10.784-1.534S60.256,91.915,60.256,92.76z"/>
					</g>
				</g>
			</g>
			<g clip-path="url(#SVGID_2_)">
				<g>
					<g>
						<path fill="#CECECE" d="M60.091,92.76c0,0.836-4.754,1.512-10.618,1.512c-5.864,0-10.619-0.676-10.619-1.512
							c0-0.831,4.754-1.506,10.619-1.506C55.336,91.254,60.091,91.929,60.091,92.76z"/>
					</g>
				</g>
			</g>
			<g clip-path="url(#SVGID_2_)">
				<g>
					<g>
						<path fill="#CDCDCE" d="M59.932,92.76c0,0.821-4.686,1.487-10.459,1.487c-5.774,0-10.459-0.666-10.459-1.487
							s4.685-1.487,10.459-1.487C55.246,91.272,59.932,91.938,59.932,92.76z"/>
					</g>
				</g>
			</g>
			<g clip-path="url(#SVGID_2_)">
				<g>
					<g>
						<path fill="#CDCDCD" d="M59.767,92.76c0,0.813-4.611,1.464-10.294,1.464c-5.684,0-10.294-0.651-10.294-1.464
							c0-0.808,4.61-1.464,10.294-1.464C55.156,91.296,59.767,91.952,59.767,92.76z"/>
					</g>
				</g>
			</g>
			<g clip-path="url(#SVGID_2_)">
				<g>
					<g>
						<path fill="#CACACA" d="M59.602,92.76c0,0.798-4.536,1.441-10.129,1.441c-5.594,0-10.131-0.644-10.131-1.441
							c0-0.792,4.537-1.441,10.131-1.441C55.065,91.318,59.602,91.968,59.602,92.76z"/>
					</g>
				</g>
			</g>
			<g clip-path="url(#SVGID_2_)">
				<g>
					<g>
						<ellipse fill="#C9C9CA" cx="49.472" cy="92.76" rx="9.965" ry="1.417"/>
					</g>
				</g>
			</g>
			<g clip-path="url(#SVGID_2_)">
				<g>
					<g>
						<ellipse fill="#C9C9C8" cx="49.472" cy="92.76" rx="9.8" ry="1.394"/>
					</g>
				</g>
			</g>
			<g clip-path="url(#SVGID_2_)">
				<g>
					<g>
						<path fill="#C7C7C7" d="M59.113,92.76c0,0.755-4.319,1.376-9.641,1.376c-5.323,0-9.641-0.621-9.641-1.376
							s4.318-1.37,9.641-1.37C54.794,91.39,59.113,92.005,59.113,92.76z"/>
					</g>
				</g>
			</g>
			<g clip-path="url(#SVGID_2_)">
				<g>
					<g>
						<path fill="#C6C6C6" d="M58.948,92.76c0,0.746-4.244,1.348-9.476,1.348c-5.232,0-9.476-0.602-9.476-1.348
							c0-0.741,4.244-1.348,9.476-1.348C54.705,91.412,58.948,92.019,58.948,92.76z"/>
					</g>
				</g>
			</g>
			<g clip-path="url(#SVGID_2_)">
				<g>
					<g>
						<path fill="#C6C5C5" d="M58.784,92.76c0,0.732-4.17,1.328-9.312,1.328c-5.142,0-9.313-0.596-9.313-1.328
							c0-0.727,4.17-1.323,9.313-1.323C54.614,91.437,58.784,92.033,58.784,92.76z"/>
					</g>
				</g>
			</g>
			<g clip-path="url(#SVGID_2_)">
				<g>
					<g>
						<path fill="#C6C5C4" d="M58.625,92.76c0,0.718-4.102,1.301-9.152,1.301c-5.052,0-9.153-0.583-9.153-1.301s4.102-1.3,9.153-1.3
							C54.523,91.46,58.625,92.042,58.625,92.76z"/>
					</g>
				</g>
			</g>
			<g clip-path="url(#SVGID_2_)">
				<g>
					<g>
						<path fill="#C3C3C3" d="M58.46,92.76c0,0.709-4.026,1.282-8.987,1.282c-4.961,0-8.988-0.573-8.988-1.282
							c0-0.704,4.027-1.276,8.988-1.276C54.434,91.483,58.46,92.056,58.46,92.76z"/>
					</g>
				</g>
			</g>
			<g clip-path="url(#SVGID_2_)">
				<g>
					<g>
						<path fill="#C2C2C2" d="M58.296,92.76c0,0.695-3.952,1.252-8.823,1.252s-8.823-0.557-8.823-1.252
							c0-0.689,3.952-1.253,8.823-1.253S58.296,92.07,58.296,92.76z"/>
					</g>
				</g>
			</g>
			<g clip-path="url(#SVGID_2_)">
				<g>
					<g>
						<ellipse fill="#C0C0C0" cx="49.472" cy="92.76" rx="8.658" ry="1.233"/>
					</g>
				</g>
			</g>
			<g clip-path="url(#SVGID_2_)">
				<g>
					<g>
						<ellipse fill="#BFBFBF" cx="49.472" cy="92.76" rx="8.493" ry="1.211"/>
					</g>
				</g>
			</g>
			<g clip-path="url(#SVGID_2_)">
				<g>
					<g>
						<path fill="#BFBEBE" d="M57.807,92.76c0,0.658-3.729,1.188-8.334,1.188c-4.606,0-8.335-0.529-8.335-1.188
							c0-0.652,3.729-1.183,8.335-1.183C54.078,91.577,57.807,92.107,57.807,92.76z"/>
					</g>
				</g>
			</g>
			<g clip-path="url(#SVGID_2_)">
				<g>
					<g>
						<ellipse fill="#BFBDBD" cx="49.472" cy="92.76" rx="8.169" ry="1.164"/>
					</g>
				</g>
			</g>
			<g clip-path="url(#SVGID_2_)">
				<g>
					<g>
						<path fill="#BCBCBC" d="M57.477,92.76c0,0.628-3.58,1.14-8.004,1.14c-4.426,0-8.005-0.512-8.005-1.14
							c0-0.629,3.58-1.135,8.005-1.135C53.897,91.625,57.477,92.131,57.477,92.76z"/>
					</g>
				</g>
			</g>
			<g clip-path="url(#SVGID_2_)">
				<g>
					<g>
						<path fill="#BBBCBB" d="M57.318,92.76c0,0.615-3.516,1.118-7.846,1.118s-7.847-0.503-7.847-1.118
							c0-0.614,3.517-1.112,7.847-1.112S57.318,92.146,57.318,92.76z"/>
					</g>
				</g>
			</g>
			<g clip-path="url(#SVGID_2_)">
				<g>
					<g>
						<path fill="#BBBBBA" d="M57.153,92.76c0,0.605-3.436,1.093-7.681,1.093c-4.244,0-7.681-0.487-7.681-1.093
							c0-0.6,3.438-1.093,7.681-1.093C53.717,91.667,57.153,92.16,57.153,92.76z"/>
					</g>
				</g>
			</g>
			<g clip-path="url(#SVGID_2_)">
				<g>
					<g>
						<path fill="#B8B8B9" d="M56.988,92.76c0,0.591-3.367,1.069-7.516,1.069c-4.149,0-7.516-0.479-7.516-1.069
							c0-0.587,3.367-1.064,7.516-1.064C53.621,91.695,56.988,92.173,56.988,92.76z"/>
					</g>
				</g>
			</g>
			<g clip-path="url(#SVGID_2_)">
				<g>
					<g>
						<path fill="#B8B8B8" d="M56.825,92.76c0,0.578-3.289,1.047-7.352,1.047c-4.063,0-7.352-0.469-7.352-1.047
							s3.289-1.047,7.352-1.047C53.536,91.713,56.825,92.182,56.825,92.76z"/>
					</g>
				</g>
			</g>
			<g clip-path="url(#SVGID_2_)">
				<g>
					<g>
						<path fill="#B6B6B7" d="M56.659,92.76c0,0.568-3.219,1.022-7.186,1.022c-3.969,0-7.187-0.454-7.187-1.022
							c0-0.563,3.218-1.019,7.187-1.019C53.44,91.741,56.659,92.197,56.659,92.76z"/>
					</g>
				</g>
			</g>
			<g clip-path="url(#SVGID_2_)">
				<g>
					<g>
						<ellipse fill="#B5B5B6" cx="49.473" cy="92.76" rx="7.027" ry="1"/>
					</g>
				</g>
			</g>
			<g clip-path="url(#SVGID_2_)">
				<g>
					<g>
						<path fill="#B4B4B5" d="M56.335,92.76c0,0.541-3.076,0.977-6.863,0.977c-3.788,0-6.863-0.436-6.863-0.977
							c0-0.539,3.076-0.976,6.863-0.976C53.26,91.784,56.335,92.221,56.335,92.76z"/>
					</g>
				</g>
			</g>
			<g clip-path="url(#SVGID_2_)">
				<g>
					<g>
						<path fill="#B4B4B4" d="M56.171,92.76c0,0.526-2.996,0.953-6.698,0.953c-3.703,0-6.699-0.427-6.699-0.953
							c0-0.524,2.996-0.952,6.699-0.952C53.175,91.808,56.171,92.235,56.171,92.76z"/>
					</g>
				</g>
			</g>
			<g clip-path="url(#SVGID_2_)">
				<g>
					<g>
						<ellipse fill="#B2B2B2" cx="49.473" cy="92.76" rx="6.534" ry="0.929"/>
					</g>
				</g>
			</g>
			<g clip-path="url(#SVGID_2_)">
				<g>
					<g>
						<path fill="#B1B1B1" d="M55.841,92.76c0,0.503-2.847,0.906-6.368,0.906c-3.522,0-6.369-0.403-6.369-0.906
							c0-0.502,2.847-0.906,6.369-0.906C52.994,91.854,55.841,92.258,55.841,92.76z"/>
					</g>
				</g>
			</g>
			<g clip-path="url(#SVGID_2_)">
				<g>
					<g>
						<path fill="#AFB0B0" d="M55.682,92.76c0,0.487-2.783,0.888-6.209,0.888c-3.427,0-6.21-0.4-6.21-0.888
							c0-0.488,2.783-0.882,6.21-0.882C52.898,91.878,55.682,92.271,55.682,92.76z"/>
					</g>
				</g>
			</g>
			<g clip-path="url(#SVGID_2_)">
				<g>
					<g>
						<path fill="#AEAEAF" d="M55.518,92.76c0,0.473-2.705,0.858-6.045,0.858c-3.342,0-6.045-0.386-6.045-0.858
							c0-0.475,2.703-0.859,6.045-0.859C52.813,91.9,55.518,92.285,55.518,92.76z"/>
					</g>
				</g>
			</g>
			<g clip-path="url(#SVGID_2_)">
				<g>
					<g>
						<path fill="#AEADAD" d="M55.353,92.76c0,0.466-2.635,0.839-5.88,0.839s-5.88-0.373-5.88-0.839c0-0.46,2.635-0.835,5.88-0.835
							S55.353,92.3,55.353,92.76z"/>
					</g>
				</g>
			</g>
			<g clip-path="url(#SVGID_2_)">
				<g>
					<g>
						<ellipse fill="#ACACAC" cx="49.472" cy="92.76" rx="5.721" ry="0.813"/>
					</g>
				</g>
			</g>
			<g clip-path="url(#SVGID_2_)">
				<g>
					<g>
						<path fill="#ABABAB" d="M55.029,92.76c0,0.438-2.492,0.793-5.556,0.793c-3.065,0-5.556-0.355-5.556-0.793
							c0-0.437,2.491-0.789,5.556-0.789C52.537,91.971,55.029,92.323,55.029,92.76z"/>
					</g>
				</g>
			</g>
			<g clip-path="url(#SVGID_2_)">
				<g>
					<g>
						<path fill="#AAAAAA" d="M54.864,92.76c0,0.427-2.411,0.771-5.391,0.771c-2.98,0-5.392-0.344-5.392-0.771
							c0-0.423,2.411-0.764,5.392-0.764C52.453,91.996,54.864,92.337,54.864,92.76z"/>
					</g>
				</g>
			</g>
			<g clip-path="url(#SVGID_2_)">
				<g>
					<g>
						<path fill="#A9A9A8" d="M54.698,92.76c0,0.414-2.342,0.746-5.226,0.746c-2.885,0-5.227-0.332-5.227-0.746
							c0-0.408,2.342-0.741,5.227-0.741C52.356,92.019,54.698,92.352,54.698,92.76z"/>
					</g>
				</g>
			</g>
			<g clip-path="url(#SVGID_2_)">
				<g>
					<g>
						<path fill="#A7A6A6" d="M54.534,92.76c0,0.398-2.262,0.724-5.062,0.724c-2.8,0-5.062-0.325-5.062-0.724
							c0-0.399,2.262-0.718,5.062-0.718C52.272,92.042,54.534,92.36,54.534,92.76z"/>
					</g>
				</g>
			</g>
			<g clip-path="url(#SVGID_2_)">
				<g>
					<g>
						<ellipse fill="#A6A5A5" cx="49.472" cy="92.76" rx="4.903" ry="0.698"/>
					</g>
				</g>
			</g>
			<g clip-path="url(#SVGID_2_)">
				<g>
					<g>
						<path fill="#A4A5A4" d="M54.21,92.76c0,0.37-2.119,0.677-4.737,0.677s-4.738-0.307-4.738-0.677s2.12-0.671,4.738-0.671
							S54.21,92.39,54.21,92.76z"/>
					</g>
				</g>
			</g>
			<g clip-path="url(#SVGID_2_)">
				<g>
					<g>
						<path fill="#A4A3A3" d="M54.045,92.76c0,0.361-2.043,0.653-4.573,0.653c-2.528,0-4.574-0.292-4.574-0.653
							c0-0.356,2.045-0.652,4.574-0.652C52.002,92.107,54.045,92.403,54.045,92.76z"/>
					</g>
				</g>
			</g>
			<g clip-path="url(#SVGID_2_)">
				<g>
					<g>
						<path fill="#A2A1A1" d="M53.886,92.76c0,0.348-1.976,0.628-4.414,0.628c-2.438,0-4.414-0.28-4.414-0.628
							c0-0.342,1.976-0.623,4.414-0.623C51.91,92.137,53.886,92.418,53.886,92.76z"/>
					</g>
				</g>
			</g>
			<g clip-path="url(#SVGID_2_)">
				<g>
					<g>
						<ellipse fill="#A1A1A0" cx="49.472" cy="92.76" rx="4.249" ry="0.605"/>
					</g>
				</g>
			</g>
			<g clip-path="url(#SVGID_2_)">
				<g>
					<g>
						<path fill="#A19F9F" d="M53.558,92.76c0,0.324-1.829,0.582-4.085,0.582c-2.258,0-4.084-0.258-4.084-0.582
							c0-0.319,1.827-0.578,4.084-0.578C51.729,92.182,53.558,92.44,53.558,92.76z"/>
					</g>
				</g>
			</g>
			<g clip-path="url(#SVGID_2_)">
				<g>
					<g>
						<path fill="#9D9E9F" d="M53.393,92.76c0,0.31-1.753,0.559-3.92,0.559c-2.167,0-3.921-0.249-3.921-0.559
							c0-0.305,1.753-0.559,3.921-0.559C51.64,92.201,53.393,92.455,53.393,92.76z"/>
					</g>
				</g>
			</g>
			<g clip-path="url(#SVGID_2_)">
				<g>
					<g>
						<path fill="#9C9C9C" d="M53.228,92.76c0,0.296-1.679,0.535-3.755,0.535c-2.077,0-3.756-0.239-3.756-0.535
							s1.679-0.534,3.756-0.534C51.549,92.226,53.228,92.464,53.228,92.76z"/>
					</g>
				</g>
			</g>
			<g clip-path="url(#SVGID_2_)">
				<g>
					<g>
						<path fill="#9A9A9A" d="M53.069,92.76c0,0.286-1.609,0.513-3.596,0.513c-1.987,0-3.597-0.227-3.597-0.513
							c0-0.282,1.609-0.512,3.597-0.512C51.459,92.248,53.069,92.478,53.069,92.76z"/>
					</g>
				</g>
			</g>
			<g clip-path="url(#SVGID_2_)">
				<g>
					<g>
						<path fill="#99999A" d="M52.903,92.76c0,0.272-1.535,0.487-3.431,0.487c-1.897,0-3.432-0.215-3.432-0.487
							c0-0.268,1.535-0.488,3.432-0.488C51.369,92.271,52.903,92.492,52.903,92.76z"/>
					</g>
				</g>
			</g>
			<g clip-path="url(#SVGID_2_)">
				<g>
					<g>
						<ellipse fill="#989897" cx="49.472" cy="92.76" rx="3.267" ry="0.466"/>
					</g>
				</g>
			</g>
			<g clip-path="url(#SVGID_2_)">
				<g>
					<g>
						<ellipse fill="#969696" cx="49.472" cy="92.76" rx="3.107" ry="0.441"/>
					</g>
				</g>
			</g>
			<g clip-path="url(#SVGID_2_)">
				<g>
					<g>
						<ellipse fill="#969595" cx="49.472" cy="92.76" rx="2.943" ry="0.419"/>
					</g>
				</g>
			</g>
			<g clip-path="url(#SVGID_2_)">
				<g>
					<g>
						<path fill="#949494" d="M52.251,92.76c0,0.221-1.244,0.398-2.778,0.398s-2.778-0.178-2.778-0.398
							c0-0.216,1.244-0.395,2.778-0.395S52.251,92.544,52.251,92.76z"/>
					</g>
				</g>
			</g>
			<g clip-path="url(#SVGID_2_)">
				<g>
					<g>
						<path fill="#949493" d="M52.085,92.76c0,0.206-1.169,0.37-2.613,0.37c-1.445,0-2.613-0.164-2.613-0.37
							c0-0.201,1.168-0.37,2.613-0.37C50.917,92.39,52.085,92.559,52.085,92.76z"/>
					</g>
				</g>
			</g>
			<g clip-path="url(#SVGID_2_)">
				<g>
					<g>
						<path fill="#939292" d="M51.921,92.76c0,0.192-1.094,0.352-2.449,0.352c-1.355,0-2.449-0.159-2.449-0.352
							s1.094-0.347,2.449-0.347C50.827,92.413,51.921,92.567,51.921,92.76z"/>
					</g>
				</g>
			</g>
			<g clip-path="url(#SVGID_2_)">
				<g>
					<g>
						<path fill="#929191" d="M51.761,92.76c0,0.184-1.024,0.324-2.289,0.324s-2.29-0.141-2.29-0.324
							c0-0.179,1.025-0.323,2.29-0.323S51.761,92.581,51.761,92.76z"/>
					</g>
				</g>
			</g>
			<g clip-path="url(#SVGID_2_)">
				<g>
					<g>
						<path fill="#90908F" d="M51.597,92.76c0,0.169-0.951,0.305-2.125,0.305c-1.174,0-2.125-0.136-2.125-0.305
							c0-0.165,0.951-0.3,2.125-0.3C50.646,92.46,51.597,92.595,51.597,92.76z"/>
					</g>
				</g>
			</g>
			<g clip-path="url(#SVGID_2_)">
				<g>
					<g>
						<ellipse fill="#8E8F8E" cx="49.473" cy="92.76" rx="1.96" ry="0.282"/>
					</g>
				</g>
			</g>
			<g clip-path="url(#SVGID_2_)">
				<g>
					<g>
						<ellipse fill="#8D8D8D" cx="49.472" cy="92.76" rx="1.795" ry="0.259"/>
					</g>
				</g>
			</g>
			<g clip-path="url(#SVGID_2_)">
				<g>
					<g>
						<ellipse fill="#8C8C8C" cx="49.472" cy="92.76" rx="1.631" ry="0.234"/>
					</g>
				</g>
			</g>
			<g clip-path="url(#SVGID_2_)">
				<g>
					<g>
						<path fill="#8A8A8A" d="M50.943,92.76c0,0.117-0.658,0.211-1.471,0.211s-1.472-0.094-1.472-0.211
							c0-0.112,0.659-0.205,1.472-0.205S50.943,92.647,50.943,92.76z"/>
					</g>
				</g>
			</g>
			<g clip-path="url(#SVGID_2_)">
				<g>
					<g>
						<ellipse fill="#898989" cx="49.473" cy="92.76" rx="1.307" ry="0.188"/>
					</g>
				</g>
			</g>
			<g clip-path="url(#SVGID_2_)">
				<g>
					<g>
						<ellipse fill="#888787" cx="49.472" cy="92.76" rx="1.142" ry="0.164"/>
					</g>
				</g>
			</g>
			<g clip-path="url(#SVGID_2_)">
				<g>
					<g>
						<path fill="#868787" d="M50.455,92.76c0,0.08-0.44,0.142-0.982,0.142c-0.542,0-0.982-0.062-0.982-0.142
							c0-0.074,0.44-0.136,0.982-0.136C50.014,92.624,50.455,92.686,50.455,92.76z"/>
					</g>
				</g>
			</g>
			<g clip-path="url(#SVGID_2_)">
				<g>
					<g>
						<path fill="#838484" d="M50.291,92.76c0,0.065-0.367,0.117-0.818,0.117c-0.452,0-0.818-0.052-0.818-0.117
							c0-0.061,0.367-0.117,0.818-0.117C49.924,92.643,50.291,92.699,50.291,92.76z"/>
					</g>
				</g>
			</g>
			<g clip-path="url(#SVGID_2_)">
				<g>
					<g>
						<ellipse fill="#838383" cx="49.472" cy="92.76" rx="0.654" ry="0.094"/>
					</g>
				</g>
			</g>
			<g clip-path="url(#SVGID_2_)">
				<g>
					<g>
						<path fill="#828282" d="M49.961,92.76c0,0.043-0.217,0.07-0.488,0.07c-0.272,0-0.489-0.027-0.489-0.07
							c0-0.037,0.217-0.07,0.489-0.07C49.744,92.689,49.961,92.723,49.961,92.76z"/>
					</g>
				</g>
			</g>
			<g clip-path="url(#SVGID_2_)">
				<g>
					<g>
						<path fill="#808181" d="M49.796,92.76c0,0.029-0.143,0.047-0.323,0.047s-0.324-0.018-0.324-0.047
							c0-0.024,0.144-0.047,0.324-0.047S49.796,92.735,49.796,92.76z"/>
					</g>
				</g>
			</g>
			<g clip-path="url(#SVGID_2_)">
				<g>
					<g>
						<ellipse fill="#808080" cx="49.473" cy="92.76" rx="0.165" ry="0.024"/>
					</g>
				</g>
			</g>
		</g>
	</g>
	<g id="_x32_">
		<path fill="#8B694D" d="M63.688,84.58c-1.032,1.47-3.065,1.827-4.538,0.796L41.523,73.049c-1.472-1.028-1.829-3.057-0.794-4.526
			l24.768-35.234c1.032-1.469,3.062-1.823,4.533-0.794l17.627,12.329c1.473,1.029,1.83,3.054,0.798,4.522L63.688,84.58z"/>
		<path fill="#FFFFFF" d="M63.816,82.193c-1.032,1.468-3.062,1.826-4.533,0.795L41.656,70.662c-1.473-1.031-1.828-3.058-0.794-4.525
			l24.765-35.235c1.034-1.469,3.065-1.825,4.537-0.795l17.628,12.327c1.473,1.029,1.827,3.057,0.796,4.524L63.816,82.193z"/>
		<path fill="#805E3E" d="M63.63,80.575c-1.032,1.468-3.061,1.823-4.533,0.794L41.47,69.042c-1.472-1.029-1.83-3.056-0.798-4.523
			L65.44,29.283c1.032-1.468,3.063-1.825,4.535-0.796l17.627,12.329c1.473,1.029,1.83,3.055,0.795,4.523L63.63,80.575z"/>
		<g>
			<defs>
				<path id="SVGID_3_" d="M63.63,80.575c-1.032,1.468-3.061,1.823-4.533,0.794L41.47,69.042c-1.472-1.029-1.83-3.056-0.798-4.523
					L65.44,29.283c1.032-1.468,3.063-1.825,4.535-0.796l17.627,12.329c1.473,1.029,1.83,3.055,0.795,4.523L63.63,80.575z"/>
			</defs>
			<clipPath id="SVGID_4_">
				<use xlink:href="#SVGID_3_"  overflow="visible"/>
			</clipPath>
			<g clip-path="url(#SVGID_4_)">
				<g>
					
						<rect x="32.012" y="-6.074" transform="matrix(0.9851 -0.1723 0.1723 0.9851 -5.3339 6.1008)" fill="#CBA16A" width="0.947" height="79.717"/>
					
						<rect x="36.745" y="-2.765" transform="matrix(0.9847 -0.1743 0.1743 0.9847 -5.8945 7.053)" fill="#CBA16A" width="0.947" height="79.718"/>
					
						<rect x="41.478" y="0.546" transform="matrix(0.9852 -0.1713 0.1713 0.9852 -6.3026 7.7854)" fill="#CBA16A" width="0.946" height="79.718"/>
					
						<rect x="46.209" y="3.855" transform="matrix(0.9849 -0.173 0.173 0.9849 -6.8583 8.735)" fill="#CBA16A" width="0.948" height="79.718"/>
					
						<rect x="50.942" y="7.166" transform="matrix(0.9851 -0.1719 0.1719 0.9851 -7.3183 9.5387)" fill="#CBA16A" width="0.949" height="79.717"/>
					
						<rect x="55.674" y="10.474" transform="matrix(0.985 -0.1727 0.1727 0.985 -7.85 10.4551)" fill="#CBA16A" width="0.95" height="79.718"/>
					
						<rect x="60.406" y="13.783" transform="matrix(0.985 -0.1727 0.1727 0.985 -8.3506 11.3223)" fill="#CBA16A" width="0.95" height="79.72"/>
					
						<rect x="65.139" y="17.096" transform="matrix(0.9855 -0.1694 0.1694 0.9855 -8.6993 11.9376)" fill="#CBA16A" width="0.951" height="79.715"/>
					
						<rect x="69.87" y="20.403" transform="matrix(0.9851 -0.1717 0.1717 0.9851 -9.3039 12.9758)" fill="#CBA16A" width="0.95" height="79.718"/>
					
						<rect x="74.603" y="23.712" transform="matrix(0.9847 -0.1741 0.1741 0.9847 -9.9203 14.04)" fill="#CBA16A" width="0.948" height="79.72"/>
					
						<rect x="79.337" y="27.025" transform="matrix(0.9856 -0.1691 0.1691 0.9856 -10.1594 14.4572)" fill="#CBA16A" width="0.947" height="79.716"/>
					
						<rect x="83.815" y="30.156" transform="matrix(0.9854 -0.1704 0.1704 0.9854 -10.6971 15.3859)" fill="#CBA16A" width="0.951" height="79.717"/>
					
						<rect x="88.294" y="33.287" transform="matrix(0.9846 -0.1751 0.1751 0.9846 -11.4353 16.6712)" fill="#CBA16A" width="0.948" height="79.72"/>
					
						<rect x="92.774" y="36.421" transform="matrix(0.985 -0.1724 0.1724 0.985 -11.7562 17.2211)" fill="#CBA16A" width="0.946" height="79.717"/>
				</g>
				<g>
					<g>
						
							<rect x="92.775" y="36.325" transform="matrix(-0.1753 -0.9845 0.9845 -0.1753 34.4943 181.4538)" fill="#CBA16A" width="0.944" height="79.908"/>
						
							<rect x="88.042" y="33.016" transform="matrix(-0.1749 -0.9846 0.9846 -0.1749 32.1536 172.8857)" fill="#CBA16A" width="0.946" height="79.91"/>
						
							<rect x="83.308" y="29.705" transform="matrix(-0.1738 -0.9848 0.9848 -0.1738 29.7393 164.2708)" fill="#CBA16A" width="0.947" height="79.909"/>
						
							<rect x="78.578" y="26.397" transform="matrix(-0.1736 -0.9848 0.9848 -0.1736 27.4307 155.7211)" fill="#CBA16A" width="0.945" height="79.909"/>
						
							<rect x="73.845" y="23.086" transform="matrix(-0.1734 -0.9848 0.9848 -0.1734 25.122 147.1656)" fill="#CBA16A" width="0.946" height="79.909"/>
						
							<rect x="69.112" y="19.775" transform="matrix(-0.1728 -0.985 0.985 -0.1728 22.7746 138.5882)" fill="#CBA16A" width="0.947" height="79.91"/>
						
							<rect x="64.38" y="16.467" transform="matrix(-0.1748 -0.9846 0.9846 -0.1748 20.6348 130.1361)" fill="#CBA16A" width="0.944" height="79.908"/>
						
							<rect x="59.646" y="13.156" transform="matrix(-0.1738 -0.9848 0.9848 -0.1738 18.2688 121.5465)" fill="#CBA16A" width="0.947" height="79.908"/>
						
							<rect x="54.913" y="9.847" transform="matrix(-0.1718 -0.9851 0.9851 -0.1718 15.844 112.9215)" fill="#CBA16A" width="0.946" height="79.908"/>
						
							<rect x="50.182" y="6.537" transform="matrix(-0.174 -0.9847 0.9847 -0.174 13.6869 104.4642)" fill="#CBA16A" width="0.946" height="79.909"/>
						
							<rect x="45.449" y="3.227" transform="matrix(-0.1738 -0.9848 0.9848 -0.1738 11.3815 95.9106)" fill="#CBA16A" width="0.947" height="79.908"/>
						
							<rect x="40.97" y="0.095" transform="matrix(-0.174 -0.9847 0.9847 -0.174 9.2168 87.829)" fill="#CBA16A" width="0.946" height="79.909"/>
						<polygon fill="#CBA16A" points="-2.473,43.347 -2.309,44.278 76.403,30.486 76.236,29.555 						"/>
						
							<rect x="32.012" y="-6.169" transform="matrix(-0.1755 -0.9845 0.9845 -0.1755 4.9268 71.6949)" fill="#CBA16A" width="0.946" height="79.907"/>
					</g>
				</g>
			</g>
		</g>
		<path fill="#4D3B2D" d="M86.004,41.183l-15.83-11.071c-1.321-0.924-3.176-0.56-4.142,0.813L42.865,63.884
			c-0.967,1.374-0.678,3.239,0.646,4.163l15.828,11.068c1.321,0.925,3.177,0.562,4.144-0.813l23.166-32.957
			C87.613,43.972,87.327,42.107,86.004,41.183z M63.4,77.184c-0.928,1.318-2.691,1.68-3.938,0.809L44.527,67.546
			c-1.247-0.872-1.508-2.648-0.579-3.969l22.241-31.641c0.928-1.319,2.691-1.682,3.938-0.81l14.933,10.445
			c1.249,0.874,1.51,2.65,0.583,3.969L63.4,77.184z"/>
	</g>
	<g>
		<g>
			<path fill="#FCD434" d="M23.504,55.928c0.72-1.084,1.647-4.152,4.59-4.669c2.942-0.515,9.226-3.164,12.841-3.314
				c5.028-0.211,16.215,0.458,23.338,9.356c7.121,8.897,6.78,13.855,6.192,19.587c-0.587,5.731-0.835,5.592-0.495,8.034
				c0.341,2.443,0.28,3.972-0.199,4.712c-1.318,2.024-2.641,1.763-4.121,1.838c-1.479,0.072-5.73,0.654-8.279,2.021
				c-3.486,1.871-16.806,2.03-24.93-4.244c-8.869-6.85-9.877-11.713-10.716-16.037c-0.561-2.895,0.057-6.75-0.263-7.91
				c-0.32-1.159-1.385-4.567-0.578-6.327C21.691,57.215,22.784,57.012,23.504,55.928z"/>
		</g>
		<g>
			<path fill="#FFE16A" d="M29.083,51.862c0.089-0.67,8.755-3.361,12.371-3.511c5.029-0.211,15.073,0.506,21.771,8.478
				c7.333,8.726,7.228,13.426,6.641,19.157s-0.497,6.029-0.157,8.473c0.17,1.221-1.247-3.729-1.114-8.74
				c0.125-4.768-1.403-12.199-7.352-17.332c-5.608-4.839-9.703-6.4-14.567-7.596C38.883,48.877,29.083,51.862,29.083,51.862z"/>
		</g>
		<g>
			<path fill="#F8D028" d="M23.362,69.083c1.14,4.213,10.715,12.805,18.83,14.762c14.528,3.501,26.037,2.888,26.911,1.429
				c0.313-0.521,0.778-0.634,0.868-0.352c0.318,0.992,0.153,4.29-0.21,4.848c-1.317,2.024-2.641,1.764-4.12,1.837
				c-1.479,0.074-5.731,0.655-8.279,2.023c-3.486,1.869-16.806,2.03-24.93-4.245c-8.87-6.85-9.877-11.712-10.716-16.036
				c-0.562-2.896,0.056-6.751-0.263-7.911c-0.32-1.158-1.385-4.568-0.578-6.328c0.101-0.22,0.646-1.168,0.646-1.063
				C21.521,59.459,22.363,65.398,23.362,69.083z"/>
		</g>
		<g>
			<path fill="#517435" d="M7.653,48.126c0,0,2.027,0.482,4.677,1.376c3.946,1.333,9.271,3.583,11.34,6.522
				c0.651,0.925,0.813-1.032,0.813-1.032s-9.876-7.768-16.35-8.347C6.59,46.508,6.575,47.853,7.653,48.126z"/>
		</g>
		<g>
			<g>
				<path fill="#517435" d="M12.744,52.223c0,0-2.122,6.539-1.463,11.452c0.66,4.914-2.215,13.22-2.601,13.623
					c-0.26,0.272,9.158-5.203,9.383-12.42C18.289,57.659,14.397,53.234,12.744,52.223z"/>
			</g>
			<g>
				<path fill="#517435" d="M13.076,52.498l-0.608-0.038c0.001-0.022,0.128-2.194-0.557-3.127l0.493-0.359
					C13.218,50.084,13.083,52.401,13.076,52.498z"/>
			</g>
			<g>
				<path fill="#80AF41" d="M12.086,52.147c0,0-6.003,0.89-6.754,7.971c-0.638,6.009,0.832,7.607,1.811,9.783
					c0.691,1.538,2.352,5.803,1.625,7.203c-0.729,1.4,3.352-4.993,2.514-13.43c-0.446-4.498,1.193-10.331,1.463-11.452
					C12.782,52.069,12.086,52.147,12.086,52.147z"/>
			</g>
		</g>
		<g>
			<g>
				<path fill="#517435" d="M15.591,47.677c0,0,4.905-0.427,7.965-2.229c3.06-1.801,9.34-2.226,9.715-2.085
					c0.252,0.094-5.984-4.565-10.81-2.703C17.634,42.523,15.798,46.311,15.591,47.677z"/>
			</g>
			<g>
				<path fill="#517435" d="M13.99,49.073l-0.522-0.312c0.521-0.871,2.116-1.437,2.184-1.46l0.202,0.574
					C15.45,48.016,14.33,48.508,13.99,49.073z"/>
			</g>
			<g>
				<path fill="#80AF41" d="M15.724,48.13c0,0,2.26,3.693,7.142,2.215c4.144-1.254,4.789-2.664,5.952-3.914
					c0.823-0.882,3.174-3.16,4.301-3.072c1.126,0.087-4.228-0.811-9.563,2.088c-2.844,1.546-7.151,2.095-7.965,2.229
					C15.479,47.696,15.724,48.13,15.724,48.13z"/>
			</g>
		</g>
	</g>
</g>
</svg>
